# xmcd
#
# Track frame offsets:
#	150
#	17797
#	29320
#	44847
#	54048
#	75544
#	90318
#	103959
#	125914
#	141312
#	161640
#	177650
#	191851
#	209002
#
# Disc length: 3057 seconds
#
# Revision: 0
# Processed by: cddbd v1.5.2PL0 Copyright (c) Steve Scherf et al.
# Submitted via: dBpowerAMP V4.0
#
DISCID=cf0bef0e
DTITLE=Andy Thorn - Bolin Creek
DYEAR=2006
DGENRE=Bluegrass
TTITLE0=Bolin Creek
TTITLE1=I Wonder How the Old Folks Are At home
TTITLE2=The Only Survivor
TTITLE3=Garris
TTITLE4=All That I Can Take
TTITLE5=Old Cold Waltz
TTITLE6=Leavin' Town
TTITLE7=Winter's Mourning
TTITLE8=Up Above
TTITLE9=The Snake
TTITLE10=Sundog
TTITLE11=Shape I'm In
TTITLE12=Star of Munster
TTITLE13=Tumbleweed
EXTD=
EXTT0=
EXTT1=
EXTT2=
EXTT3=
EXTT4=
EXTT5=
EXTT6=
EXTT7=
EXTT8=
EXTT9=
EXTT10=
EXTT11=
EXTT12=
EXTT13=
PLAYORDER=
